<svg aria-roledescription="er" role="graphics-document document" viewBox="0 0 771.532958984375 364" style="max-width: 771.533px; background-color: white;" xmlns:xlink="http://www.w3.org/1999/xlink" xmlns="http://www.w3.org/2000/svg" width="100%" id="mermaid-0"><style>#mermaid-0{font-family:"trebuchet ms",verdana,arial,sans-serif;font-size:16px;fill:#000000;}#mermaid-0 .error-icon{fill:#552222;}#mermaid-0 .error-text{fill:#552222;stroke:#552222;}#mermaid-0 .edge-thickness-normal{stroke-width:2px;}#mermaid-0 .edge-thickness-thick{stroke-width:3.5px;}#mermaid-0 .edge-pattern-solid{stroke-dasharray:0;}#mermaid-0 .edge-pattern-dashed{stroke-dasharray:3;}#mermaid-0 .edge-pattern-dotted{stroke-dasharray:2;}#mermaid-0 .marker{fill:#000000;stroke:#000000;}#mermaid-0 .marker.cross{stroke:#000000;}#mermaid-0 svg{font-family:"trebuchet ms",verdana,arial,sans-serif;font-size:16px;}#mermaid-0 .entityBox{fill:#cde498;stroke:#13540c;}#mermaid-0 .attributeBoxOdd{fill:#ffffff;stroke:#13540c;}#mermaid-0 .attributeBoxEven{fill:#f2f2f2;stroke:#13540c;}#mermaid-0 .relationshipLabelBox{fill:hsl(78.1578947368, 58.4615384615%, 84.5098039216%);opacity:0.7;background-color:hsl(78.1578947368, 58.4615384615%, 84.5098039216%);}#mermaid-0 .relationshipLabelBox rect{opacity:0.5;}#mermaid-0 .relationshipLine{stroke:#000000;}#mermaid-0 .entityTitleText{text-anchor:middle;font-size:18px;fill:#000000;}#mermaid-0 :root{--mermaid-font-family:"trebuchet ms",verdana,arial,sans-serif;}</style><g/><defs><marker orient="auto" markerHeight="18" markerWidth="18" refY="9" refX="0" id="ONLY_ONE_START"><path d="M9,0 L9,18 M15,0 L15,18" fill="none" stroke="gray"/></marker></defs><defs><marker orient="auto" markerHeight="18" markerWidth="18" refY="9" refX="18" id="ONLY_ONE_END"><path d="M3,0 L3,18 M9,0 L9,18" fill="none" stroke="gray"/></marker></defs><defs><marker orient="auto" markerHeight="18" markerWidth="30" refY="9" refX="0" id="ZERO_OR_ONE_START"><circle r="6" cy="9" cx="21" fill="white" stroke="gray"/><path d="M9,0 L9,18" fill="none" stroke="gray"/></marker></defs><defs><marker orient="auto" markerHeight="18" markerWidth="30" refY="9" refX="30" id="ZERO_OR_ONE_END"><circle r="6" cy="9" cx="9" fill="white" stroke="gray"/><path d="M21,0 L21,18" fill="none" stroke="gray"/></marker></defs><defs><marker orient="auto" markerHeight="36" markerWidth="45" refY="18" refX="18" id="ONE_OR_MORE_START"><path d="M0,18 Q 18,0 36,18 Q 18,36 0,18 M42,9 L42,27" fill="none" stroke="gray"/></marker></defs><defs><marker orient="auto" markerHeight="36" markerWidth="45" refY="18" refX="27" id="ONE_OR_MORE_END"><path d="M3,9 L3,27 M9,18 Q27,0 45,18 Q27,36 9,18" fill="none" stroke="gray"/></marker></defs><defs><marker orient="auto" markerHeight="36" markerWidth="57" refY="18" refX="18" id="ZERO_OR_MORE_START"><circle r="6" cy="18" cx="48" fill="white" stroke="gray"/><path d="M0,18 Q18,0 36,18 Q18,36 0,18" fill="none" stroke="gray"/></marker></defs><defs><marker orient="auto" markerHeight="36" markerWidth="57" refY="18" refX="39" id="ZERO_OR_MORE_END"><circle r="6" cy="18" cx="9" fill="white" stroke="gray"/><path d="M21,18 Q39,0 57,18 Q39,36 21,18" fill="none" stroke="gray"/></marker></defs><path style="stroke: gray; fill: none;" marker-start="url(#ZERO_OR_MORE_START)" marker-end="url(#ONLY_ONE_END)" d="M88.57262420654297,121L88.57262420654297,131.16666666666666C88.57262420654297,141.33333333333334,88.57262420654297,161.66666666666666,124.28424453735352,185.76953313817873C159.99586486816406,209.87239960969077,231.41910552978516,237.74479921938155,267.1307258605957,251.68099902422694L302.84234619140625,265.6171988290723" class="er relationshipLine"/><path style="stroke: gray; fill: none;" marker-start="url(#ZERO_OR_MORE_START)" marker-end="url(#ONLY_ONE_END)" d="M360.19844818115234,132L360.19844818115234,140.33333333333334C360.19844818115234,148.66666666666666,360.19844818115234,165.33333333333334,360.19844818115234,182C360.19844818115234,198.66666666666666,360.19844818115234,215.33333333333334,360.19844818115234,223.66666666666666L360.19844818115234,232" class="er relationshipLine"/><path style="stroke: gray; fill: none;" marker-start="url(#ZERO_OR_ONE_START)" marker-end="url(#ONLY_ONE_END)" d="M657.3923187255859,121L657.3923187255859,131.16666666666666C657.3923187255859,141.33333333333334,657.3923187255859,161.66666666666666,617.4193572998047,186.09047094983512C577.4463958740234,210.5142752330036,497.50047302246094,239.02855046600723,457.5275115966797,253.28568808250904L417.55455017089844,267.54282569901085" class="er relationshipLine"/><g transform="translate(302.84234619140625,232 )" id="entity-user-dad033c9-7a45-5f6a-ab5a-b5def405b2a6"><rect height="112" width="114.71220397949219" y="0" x="0" class="er entityBox"/><text style="dominant-baseline: middle; text-anchor: middle; font-size: 12px;" transform="translate(57.356101989746094,12)" y="0" x="0" id="text-entity-user-dad033c9-7a45-5f6a-ab5a-b5def405b2a6" class="er entityLabel">user</text><rect height="22" width="37.39605712890625" y="24" x="0" class="er attributeBoxOdd"/><text style="dominant-baseline: middle; font-size: 10.2px;" transform="translate(5,35)" y="0" x="0" id="text-entity-user-dad033c9-7a45-5f6a-ab5a-b5def405b2a6-attr-1-type" class="er entityLabel">String</text><rect height="22" width="54.62846374511719" y="24" x="37.39605712890625" class="er attributeBoxOdd"/><text style="dominant-baseline: middle; font-size: 10.2px;" transform="translate(42.39605712890625,35)" y="0" x="0" id="text-entity-user-dad033c9-7a45-5f6a-ab5a-b5def405b2a6-attr-1-name" class="er entityLabel">id</text><rect height="22" width="22.68768310546875" y="24" x="92.02452087402344" class="er attributeBoxOdd"/><text style="dominant-baseline: middle; font-size: 10.2px;" transform="translate(97.02452087402344,35)" y="0" x="0" id="text-entity-user-dad033c9-7a45-5f6a-ab5a-b5def405b2a6-attr-1-key" class="er entityLabel">PK</text><rect height="22" width="37.39605712890625" y="46" x="0" class="er attributeBoxEven"/><text style="dominant-baseline: middle; font-size: 10.2px;" transform="translate(5,57)" y="0" x="0" id="text-entity-user-dad033c9-7a45-5f6a-ab5a-b5def405b2a6-attr-2-type" class="er entityLabel">String</text><rect height="22" width="54.62846374511719" y="46" x="37.39605712890625" class="er attributeBoxEven"/><text style="dominant-baseline: middle; font-size: 10.2px;" transform="translate(42.39605712890625,57)" y="0" x="0" id="text-entity-user-dad033c9-7a45-5f6a-ab5a-b5def405b2a6-attr-2-name" class="er entityLabel">username</text><rect height="22" width="22.68768310546875" y="46" x="92.02452087402344" class="er attributeBoxEven"/><text style="dominant-baseline: middle; font-size: 10.2px;" transform="translate(97.02452087402344,57)" y="0" x="0" id="text-entity-user-dad033c9-7a45-5f6a-ab5a-b5def405b2a6-attr-2-key" class="er entityLabel"/><rect height="22" width="37.39605712890625" y="68" x="0" class="er attributeBoxOdd"/><text style="dominant-baseline: middle; font-size: 10.2px;" transform="translate(5,79)" y="0" x="0" id="text-entity-user-dad033c9-7a45-5f6a-ab5a-b5def405b2a6-attr-3-type" class="er entityLabel">String</text><rect height="22" width="54.62846374511719" y="68" x="37.39605712890625" class="er attributeBoxOdd"/><text style="dominant-baseline: middle; font-size: 10.2px;" transform="translate(42.39605712890625,79)" y="0" x="0" id="text-entity-user-dad033c9-7a45-5f6a-ab5a-b5def405b2a6-attr-3-name" class="er entityLabel">email</text><rect height="22" width="22.68768310546875" y="68" x="92.02452087402344" class="er attributeBoxOdd"/><text style="dominant-baseline: middle; font-size: 10.2px;" transform="translate(97.02452087402344,79)" y="0" x="0" id="text-entity-user-dad033c9-7a45-5f6a-ab5a-b5def405b2a6-attr-3-key" class="er entityLabel"/><rect height="22" width="37.39605712890625" y="90" x="0" class="er attributeBoxEven"/><text style="dominant-baseline: middle; font-size: 10.2px;" transform="translate(5,101)" y="0" x="0" id="text-entity-user-dad033c9-7a45-5f6a-ab5a-b5def405b2a6-attr-4-type" class="er entityLabel">String</text><rect height="22" width="54.62846374511719" y="90" x="37.39605712890625" class="er attributeBoxEven"/><text style="dominant-baseline: middle; font-size: 10.2px;" transform="translate(42.39605712890625,101)" y="0" x="0" id="text-entity-user-dad033c9-7a45-5f6a-ab5a-b5def405b2a6-attr-4-name" class="er entityLabel">role</text><rect height="22" width="22.68768310546875" y="90" x="92.02452087402344" class="er attributeBoxEven"/><text style="dominant-baseline: middle; font-size: 10.2px;" transform="translate(97.02452087402344,101)" y="0" x="0" id="text-entity-user-dad033c9-7a45-5f6a-ab5a-b5def405b2a6-attr-4-key" class="er entityLabel"/></g><g transform="translate(20,31 )" id="entity-session-3ef71acd-69e8-5422-bd55-547cff916828"><rect height="90" width="137.14524841308594" y="0" x="0" class="er entityBox"/><text style="dominant-baseline: middle; text-anchor: middle; font-size: 12px;" transform="translate(68.57262420654297,12)" y="0" x="0" id="text-entity-session-3ef71acd-69e8-5422-bd55-547cff916828" class="er entityLabel">session</text><rect height="22" width="37.39605712890625" y="24" x="0" class="er attributeBoxOdd"/><text style="dominant-baseline: middle; font-size: 10.2px;" transform="translate(5,35)" y="0" x="0" id="text-entity-session-3ef71acd-69e8-5422-bd55-547cff916828-attr-1-type" class="er entityLabel">String</text><rect height="22" width="77.06150817871094" y="24" x="37.39605712890625" class="er attributeBoxOdd"/><text style="dominant-baseline: middle; font-size: 10.2px;" transform="translate(42.39605712890625,35)" y="0" x="0" id="text-entity-session-3ef71acd-69e8-5422-bd55-547cff916828-attr-1-name" class="er entityLabel">id</text><rect height="22" width="22.68768310546875" y="24" x="114.45756530761719" class="er attributeBoxOdd"/><text style="dominant-baseline: middle; font-size: 10.2px;" transform="translate(119.45756530761719,35)" y="0" x="0" id="text-entity-session-3ef71acd-69e8-5422-bd55-547cff916828-attr-1-key" class="er entityLabel">PK</text><rect height="22" width="37.39605712890625" y="46" x="0" class="er attributeBoxEven"/><text style="dominant-baseline: middle; font-size: 10.2px;" transform="translate(5,57)" y="0" x="0" id="text-entity-session-3ef71acd-69e8-5422-bd55-547cff916828-attr-2-type" class="er entityLabel">BigInt</text><rect height="22" width="77.06150817871094" y="46" x="37.39605712890625" class="er attributeBoxEven"/><text style="dominant-baseline: middle; font-size: 10.2px;" transform="translate(42.39605712890625,57)" y="0" x="0" id="text-entity-session-3ef71acd-69e8-5422-bd55-547cff916828-attr-2-name" class="er entityLabel">active_expires</text><rect height="22" width="22.68768310546875" y="46" x="114.45756530761719" class="er attributeBoxEven"/><text style="dominant-baseline: middle; font-size: 10.2px;" transform="translate(119.45756530761719,57)" y="0" x="0" id="text-entity-session-3ef71acd-69e8-5422-bd55-547cff916828-attr-2-key" class="er entityLabel"/><rect height="22" width="37.39605712890625" y="68" x="0" class="er attributeBoxOdd"/><text style="dominant-baseline: middle; font-size: 10.2px;" transform="translate(5,79)" y="0" x="0" id="text-entity-session-3ef71acd-69e8-5422-bd55-547cff916828-attr-3-type" class="er entityLabel">BigInt</text><rect height="22" width="77.06150817871094" y="68" x="37.39605712890625" class="er attributeBoxOdd"/><text style="dominant-baseline: middle; font-size: 10.2px;" transform="translate(42.39605712890625,79)" y="0" x="0" id="text-entity-session-3ef71acd-69e8-5422-bd55-547cff916828-attr-3-name" class="er entityLabel">idle_expires</text><rect height="22" width="22.68768310546875" y="68" x="114.45756530761719" class="er attributeBoxOdd"/><text style="dominant-baseline: middle; font-size: 10.2px;" transform="translate(119.45756530761719,79)" y="0" x="0" id="text-entity-session-3ef71acd-69e8-5422-bd55-547cff916828-attr-3-key" class="er entityLabel"/></g><g transform="translate(257.14524841308594,20 )" id="entity-key-5dba3737-640d-58e1-afaa-1658dd2e50b9"><rect height="112" width="206.1063995361328" y="0" x="0" class="er entityBox"/><text style="dominant-baseline: middle; text-anchor: middle; font-size: 12px;" transform="translate(103.0531997680664,12)" y="0" x="0" id="text-entity-key-5dba3737-640d-58e1-afaa-1658dd2e50b9" class="er entityLabel">key</text><rect height="22" width="46.649749755859375" y="24" x="0" class="er attributeBoxOdd"/><text style="dominant-baseline: middle; font-size: 10.2px;" transform="translate(5,35)" y="0" x="0" id="text-entity-key-5dba3737-640d-58e1-afaa-1658dd2e50b9-attr-1-type" class="er entityLabel">String</text><rect height="22" width="89.55642700195312" y="24" x="46.649749755859375" class="er attributeBoxOdd"/><text style="dominant-baseline: middle; font-size: 10.2px;" transform="translate(51.649749755859375,35)" y="0" x="0" id="text-entity-key-5dba3737-640d-58e1-afaa-1658dd2e50b9-attr-1-name" class="er entityLabel">id</text><rect height="22" width="22.68768310546875" y="24" x="136.2061767578125" class="er attributeBoxOdd"/><text style="dominant-baseline: middle; font-size: 10.2px;" transform="translate(141.2061767578125,35)" y="0" x="0" id="text-entity-key-5dba3737-640d-58e1-afaa-1658dd2e50b9-attr-1-key" class="er entityLabel">PK</text><rect height="22" width="47.21253967285156" y="24" x="158.89385986328125" class="er attributeBoxOdd"/><text style="dominant-baseline: middle; font-size: 10.2px;" transform="translate(163.89385986328125,35)" y="0" x="0" id="text-entity-key-5dba3737-640d-58e1-afaa-1658dd2e50b9-attr-1-comment" class="er entityLabel"/><rect height="22" width="46.649749755859375" y="46" x="0" class="er attributeBoxEven"/><text style="dominant-baseline: middle; font-size: 10.2px;" transform="translate(5,57)" y="0" x="0" id="text-entity-key-5dba3737-640d-58e1-afaa-1658dd2e50b9-attr-2-type" class="er entityLabel">String</text><rect height="22" width="89.55642700195312" y="46" x="46.649749755859375" class="er attributeBoxEven"/><text style="dominant-baseline: middle; font-size: 10.2px;" transform="translate(51.649749755859375,57)" y="0" x="0" id="text-entity-key-5dba3737-640d-58e1-afaa-1658dd2e50b9-attr-2-name" class="er entityLabel">hashed_password</text><rect height="22" width="22.68768310546875" y="46" x="136.2061767578125" class="er attributeBoxEven"/><text style="dominant-baseline: middle; font-size: 10.2px;" transform="translate(141.2061767578125,57)" y="0" x="0" id="text-entity-key-5dba3737-640d-58e1-afaa-1658dd2e50b9-attr-2-key" class="er entityLabel"/><rect height="22" width="47.21253967285156" y="46" x="158.89385986328125" class="er attributeBoxEven"/><text style="dominant-baseline: middle; font-size: 10.2px;" transform="translate(163.89385986328125,57)" y="0" x="0" id="text-entity-key-5dba3737-640d-58e1-afaa-1658dd2e50b9-attr-2-comment" class="er entityLabel">nullable</text><rect height="22" width="46.649749755859375" y="68" x="0" class="er attributeBoxOdd"/><text style="dominant-baseline: middle; font-size: 10.2px;" transform="translate(5,79)" y="0" x="0" id="text-entity-key-5dba3737-640d-58e1-afaa-1658dd2e50b9-attr-3-type" class="er entityLabel">Boolean</text><rect height="22" width="89.55642700195312" y="68" x="46.649749755859375" class="er attributeBoxOdd"/><text style="dominant-baseline: middle; font-size: 10.2px;" transform="translate(51.649749755859375,79)" y="0" x="0" id="text-entity-key-5dba3737-640d-58e1-afaa-1658dd2e50b9-attr-3-name" class="er entityLabel">primary</text><rect height="22" width="22.68768310546875" y="68" x="136.2061767578125" class="er attributeBoxOdd"/><text style="dominant-baseline: middle; font-size: 10.2px;" transform="translate(141.2061767578125,79)" y="0" x="0" id="text-entity-key-5dba3737-640d-58e1-afaa-1658dd2e50b9-attr-3-key" class="er entityLabel"/><rect height="22" width="47.21253967285156" y="68" x="158.89385986328125" class="er attributeBoxOdd"/><text style="dominant-baseline: middle; font-size: 10.2px;" transform="translate(163.89385986328125,79)" y="0" x="0" id="text-entity-key-5dba3737-640d-58e1-afaa-1658dd2e50b9-attr-3-comment" class="er entityLabel"/><rect height="22" width="46.649749755859375" y="90" x="0" class="er attributeBoxEven"/><text style="dominant-baseline: middle; font-size: 10.2px;" transform="translate(5,101)" y="0" x="0" id="text-entity-key-5dba3737-640d-58e1-afaa-1658dd2e50b9-attr-4-type" class="er entityLabel">BigInt</text><rect height="22" width="89.55642700195312" y="90" x="46.649749755859375" class="er attributeBoxEven"/><text style="dominant-baseline: middle; font-size: 10.2px;" transform="translate(51.649749755859375,101)" y="0" x="0" id="text-entity-key-5dba3737-640d-58e1-afaa-1658dd2e50b9-attr-4-name" class="er entityLabel">expires</text><rect height="22" width="22.68768310546875" y="90" x="136.2061767578125" class="er attributeBoxEven"/><text style="dominant-baseline: middle; font-size: 10.2px;" transform="translate(141.2061767578125,101)" y="0" x="0" id="text-entity-key-5dba3737-640d-58e1-afaa-1658dd2e50b9-attr-4-key" class="er entityLabel"/><rect height="22" width="47.21253967285156" y="90" x="158.89385986328125" class="er attributeBoxEven"/><text style="dominant-baseline: middle; font-size: 10.2px;" transform="translate(163.89385986328125,101)" y="0" x="0" id="text-entity-key-5dba3737-640d-58e1-afaa-1658dd2e50b9-attr-4-comment" class="er entityLabel">nullable</text></g><g transform="translate(563.2516479492188,31 )" id="entity-profile-0cabb42c-764e-5046-9360-c108fb8f09c5"><rect height="90" width="188.28134155273438" y="0" x="0" class="er entityBox"/><text style="dominant-baseline: middle; text-anchor: middle; font-size: 12px;" transform="translate(94.14067077636719,12)" y="0" x="0" id="text-entity-profile-0cabb42c-764e-5046-9360-c108fb8f09c5" class="er entityLabel">profile</text><rect height="22" width="54.095550537109375" y="24" x="0" class="er attributeBoxOdd"/><text style="dominant-baseline: middle; font-size: 10.2px;" transform="translate(5,35)" y="0" x="0" id="text-entity-profile-0cabb42c-764e-5046-9360-c108fb8f09c5-attr-1-type" class="er entityLabel">String</text><rect height="22" width="64.28556823730469" y="24" x="54.095550537109375" class="er attributeBoxOdd"/><text style="dominant-baseline: middle; font-size: 10.2px;" transform="translate(59.095550537109375,35)" y="0" x="0" id="text-entity-profile-0cabb42c-764e-5046-9360-c108fb8f09c5-attr-1-name" class="er entityLabel">id</text><rect height="22" width="22.68768310546875" y="24" x="118.38111877441406" class="er attributeBoxOdd"/><text style="dominant-baseline: middle; font-size: 10.2px;" transform="translate(123.38111877441406,35)" y="0" x="0" id="text-entity-profile-0cabb42c-764e-5046-9360-c108fb8f09c5-attr-1-key" class="er entityLabel">PK</text><rect height="22" width="47.21253967285156" y="24" x="141.0688018798828" class="er attributeBoxOdd"/><text style="dominant-baseline: middle; font-size: 10.2px;" transform="translate(146.0688018798828,35)" y="0" x="0" id="text-entity-profile-0cabb42c-764e-5046-9360-c108fb8f09c5-attr-1-comment" class="er entityLabel"/><rect height="22" width="54.095550537109375" y="46" x="0" class="er attributeBoxEven"/><text style="dominant-baseline: middle; font-size: 10.2px;" transform="translate(5,57)" y="0" x="0" id="text-entity-profile-0cabb42c-764e-5046-9360-c108fb8f09c5-attr-2-type" class="er entityLabel">String</text><rect height="22" width="64.28556823730469" y="46" x="54.095550537109375" class="er attributeBoxEven"/><text style="dominant-baseline: middle; font-size: 10.2px;" transform="translate(59.095550537109375,57)" y="0" x="0" id="text-entity-profile-0cabb42c-764e-5046-9360-c108fb8f09c5-attr-2-name" class="er entityLabel">avatar</text><rect height="22" width="22.68768310546875" y="46" x="118.38111877441406" class="er attributeBoxEven"/><text style="dominant-baseline: middle; font-size: 10.2px;" transform="translate(123.38111877441406,57)" y="0" x="0" id="text-entity-profile-0cabb42c-764e-5046-9360-c108fb8f09c5-attr-2-key" class="er entityLabel"/><rect height="22" width="47.21253967285156" y="46" x="141.0688018798828" class="er attributeBoxEven"/><text style="dominant-baseline: middle; font-size: 10.2px;" transform="translate(146.0688018798828,57)" y="0" x="0" id="text-entity-profile-0cabb42c-764e-5046-9360-c108fb8f09c5-attr-2-comment" class="er entityLabel">nullable</text><rect height="22" width="54.095550537109375" y="68" x="0" class="er attributeBoxOdd"/><text style="dominant-baseline: middle; font-size: 10.2px;" transform="translate(5,79)" y="0" x="0" id="text-entity-profile-0cabb42c-764e-5046-9360-c108fb8f09c5-attr-3-type" class="er entityLabel">DateTime</text><rect height="22" width="64.28556823730469" y="68" x="54.095550537109375" class="er attributeBoxOdd"/><text style="dominant-baseline: middle; font-size: 10.2px;" transform="translate(59.095550537109375,79)" y="0" x="0" id="text-entity-profile-0cabb42c-764e-5046-9360-c108fb8f09c5-attr-3-name" class="er entityLabel">date_added</text><rect height="22" width="22.68768310546875" y="68" x="118.38111877441406" class="er attributeBoxOdd"/><text style="dominant-baseline: middle; font-size: 10.2px;" transform="translate(123.38111877441406,79)" y="0" x="0" id="text-entity-profile-0cabb42c-764e-5046-9360-c108fb8f09c5-attr-3-key" class="er entityLabel"/><rect height="22" width="47.21253967285156" y="68" x="141.0688018798828" class="er attributeBoxOdd"/><text style="dominant-baseline: middle; font-size: 10.2px;" transform="translate(146.0688018798828,79)" y="0" x="0" id="text-entity-profile-0cabb42c-764e-5046-9360-c108fb8f09c5-attr-3-comment" class="er entityLabel"/></g><rect height="14" width="23.958984375" y="206.602294921875" x="163.90972900390625" class="er relationshipLabelBox"/><text style="text-anchor: middle; dominant-baseline: middle; font-size: 12px;" y="213.602294921875" x="175.88922119140625" id="rel1" class="er relationshipLabel">user</text><rect height="14" width="23.958984375" y="175" x="348.2189636230469" class="er relationshipLabelBox"/><text style="text-anchor: middle; dominant-baseline: middle; font-size: 12px;" y="182" x="360.1984558105469" id="rel2" class="er relationshipLabel">user</text><rect height="14" width="23.958984375" y="208.50709533691406" x="545.0250244140625" class="er relationshipLabelBox"/><text style="text-anchor: middle; dominant-baseline: middle; font-size: 12px;" y="215.50709533691406" x="557.0045166015625" id="rel3" class="er relationshipLabel">user</text></svg>